<?xml version="1.0" encoding="UTF-8"?>
<svg id="Layer_2" data-name="Layer 2" xmlns="http://www.w3.org/2000/svg" viewBox="0 0 304.84 306.21">
  <defs>
    <style>
      .cls-1 {
        fill: #f50;
      }
    </style>
  </defs>
  <g id="Layer_1-2" data-name="Layer 1">
    <path class="cls-1" d="M263.28,238.38c4.28-1.75,8.47-3.72,12.83-5.28,2.82-1.01,9.78-3.6,12.45-3.33,10.54,1.08,17.03,22.44,16.21,31.29-.64,6.92-4.7,6.76-9.75,8.96-14.35,6.26-23.88,20.73-35.71,30.27-15.26,12.31-36.53,4.43-40.58-14.58-1.32-6.22-2.19-13.52-2.92-19.88-4.93-43.16-1.45-86.39,5.8-129.01.55-3.25,2.06-8.31,2.1-11.36.02-1.84-1.19-3.68-2.9-4.31-2.49-.92-3.99.01-5.63,1.79-4.86,5.23-10.14,13.01-14.47,18.89-7.4,10.05-14.46,20.34-21.25,30.82-1.75,2.7-4.98,9.05-7.26,10.74-7.3,5.38-30.71,4.34-38.54,0-2.88-1.6-4.1-4.82-5.56-7.63-6.02-11.51-10.59-23.7-14.94-35.93-2.39-3.48-6.04-2.94-8.24.48-4.27,6.63-8.46,15.35-12.08,22.48-14.26,28.08-26.14,57.43-36.34,87.24-2.98,8.72-5.47,19.06-8.87,27.37-.8,1.95-1.84,3.04-3.78,3.9-9.88,4.37-35.41-3.47-42-12.11-3.1-4.07-1.64-6.26-.34-10.58C22.03,190.13,53.79,120.41,95.99,62.72c2.96-4.04,6.45-9.17,9.7-12.86,1.06-1.21,2.06-2.11,3.64-2.6,9.55-2.92,32.62,4.38,39.18,12.07,3.1,3.63,2.14,10.1,2.52,14.76.76,9.35,1.95,23.51,4.67,32.28,1.32,4.25,5.27,5,8.27,1.79,4.12-4.4,8.13-10.73,12.01-15.59,22.65-28.36,47.76-56.2,74.59-80.65,3.35-3.05,8.7-8.45,12.25-10.78.86-.56,1.96-.99,2.99-1.09,10.44-1.06,29.71,12.44,34.85,21.28,1.64,2.82,2.15,4.44,1.31,7.7-1.1,4.28-3.21,9.08-4.63,13.37-20.75,63.1-36.82,128.9-34.06,195.96Z"/>
  </g>
</svg>